{"asset": {"version": "2.0", "generator": "AI Influencer Studio"}, "scene": 0, "scenes": [{"nodes": [0]}], "nodes": [{"mesh": 0, "name": "Body"}], "meshes": [{"primitives": [{"attributes": {"POSITION": 0}, "indices": 1, "mode": 4}], "name": "BodyMesh"}], "accessors": [{"bufferView": 0, "componentType": 5126, "count": 3222, "type": "VEC3", "min": [-0.507575, 0.0, -0.242], "max": [0.507575, 2.3826159999999996, 0.242]}, {"bufferView": 1, "componentType": 5125, "count": 16056, "type": "SCALAR"}], "bufferViews": [{"buffer": 0, "byteOffset": 0, "byteLength": 38664, "target": 34962}, {"buffer": 0, "byteOffset": 38664, "byteLength": 64224, "target": 34963}], "buffers": [{"uri": "data:application/octet-stream;base64,", "byteLength": 102888}]}