{"asset": {"version": "2.0", "generator": "AI Influencer Studio"}, "scene": 0, "scenes": [{"nodes": [0]}], "nodes": [{"mesh": 0, "name": "Body"}], "meshes": [{"primitives": [{"attributes": {"POSITION": 0}, "indices": 1, "mode": 4}], "name": "BodyMesh"}], "accessors": [{"bufferView": 0, "componentType": 5126, "count": 3498, "type": "VEC3", "min": [-0.44206, 0.0, -0.3253], "max": [0.44206, 2.2359850000000003, 0.3253]}, {"bufferView": 1, "componentType": 5125, "count": 17772, "type": "SCALAR"}], "bufferViews": [{"buffer": 0, "byteOffset": 0, "byteLength": 41976, "target": 34962}, {"buffer": 0, "byteOffset": 41976, "byteLength": 71088, "target": 34963}], "buffers": [{"uri": "data:application/octet-stream;base64,", "byteLength": 113064}]}